<svg xmlns="http://www.w3.org/2000/svg" xmlns:xlink="http://www.w3.org/1999/xlink" preserveAspectRatio="xMidYMid" width="12" height="54.531" viewBox="0 0 12 54.531">
  <defs>
    <style>
      .cls-1 {
        stroke: #fff;
        stroke-linecap: round;
        stroke-width: 2px;
        fill: none;
      }

      .cls-2, .cls-3 {
        fill: #fff;
      }

      .cls-2 {
        opacity: 0.4;
      }

      .cls-3 {
        fill-rule: evenodd;
      }
    </style>
  </defs>
  <g>
    <circle cx="6" cy="6" r="5" class="cls-1"/>
    <circle cx="6" cy="18" r="2" class="cls-2"/>
    <circle cx="6" cy="26" r="2" class="cls-2"/>
    <circle cx="6" cy="35" r="2" class="cls-2"/>
    <path d="M5.285,53.317 C4.720,52.679 4.228,52.078 3.809,51.513 C3.389,50.948 2.965,50.328 2.537,49.653 C2.109,48.979 1.721,48.227 1.375,47.397 C1.029,46.568 0.819,45.798 0.746,45.087 C0.728,44.868 0.719,44.659 0.719,44.458 C0.719,43.109 1.197,41.956 2.154,40.999 C3.111,40.042 4.264,39.563 5.613,39.563 C6.962,39.563 8.115,40.042 9.072,40.999 C10.029,41.956 10.508,43.109 10.508,44.458 C10.508,44.640 10.498,44.841 10.480,45.059 C10.407,45.789 10.193,46.573 9.838,47.411 C9.482,48.250 9.113,48.983 8.730,49.612 C8.348,50.241 7.914,50.879 7.432,51.526 C6.948,52.173 6.616,52.606 6.434,52.825 C6.251,53.044 6.105,53.208 5.996,53.317 C5.941,53.390 5.868,53.454 5.777,53.509 C5.723,53.527 5.677,53.536 5.641,53.536 C5.604,53.536 5.559,53.527 5.504,53.509 C5.431,53.454 5.358,53.390 5.285,53.317 L5.285,53.317 ZM2.469,44.471 C2.469,45.338 2.774,46.080 3.385,46.700 C3.995,47.320 4.738,47.630 5.613,47.630 C6.488,47.630 7.231,47.320 7.842,46.700 C8.452,46.080 8.758,45.338 8.758,44.471 C8.758,43.606 8.452,42.863 7.842,42.243 C7.231,41.623 6.488,41.313 5.613,41.313 C4.738,41.313 3.995,41.623 3.385,42.243 C2.774,42.863 2.469,43.606 2.469,44.471 Z" class="cls-3"/>
  </g>
</svg>
