<svg xmlns="http://www.w3.org/2000/svg" width="46" height="44.031" viewBox="0 0 46 44.031">
  <metadata><?xpacket begin="﻿" id="W5M0MpCehiHzreSzNTczkc9d"?>
<x:xmpmeta xmlns:x="adobe:ns:meta/" x:xmptk="Adobe XMP Core 5.6-c138 79.159824, 2016/09/14-01:09:01        ">
   <rdf:RDF xmlns:rdf="http://www.w3.org/1999/02/22-rdf-syntax-ns#">
      <rdf:Description rdf:about=""/>
   </rdf:RDF>
</x:xmpmeta>
                                                                                                    
                                                                                                    
                                                                                                    
                                                                                                    
                                                                                                    
                                                                                                    
                                                                                                    
                                                                                                    
                                                                                                    
                                                                                                    
                                                                                                    
                                                                                                    
                                                                                                    
                                                                                                    
                                                                                                    
                                                                                                    
                                                                                                    
                                                                                                    
                                                                                                    
                                                                                                    
                           
<?xpacket end="w"?></metadata>
<defs>
    <style>
      .cls-1 {
        fill: #fefdfd;
        fill-rule: evenodd;
      }
    </style>
  </defs>
  <path id="frit-icon" class="cls-1" d="M1185.13,800.637l-4.61-10.98a1.7,1.7,0,0,0-1.15-.988l-7.42-1.81-5.3-13.373a1.715,1.715,0,0,0-.65-0.792l-6.81-4.493-3.97-7.28a1.686,1.686,0,0,0-1.48-.88h-12.06a1.689,1.689,0,0,0-1.68,1.7V801.3a1.688,1.688,0,0,0,1.68,1.7h41.9A1.7,1.7,0,0,0,1185.13,800.637Zm-42.65-1.036V762.56h10.27l3.69,6.771a10.572,10.572,0,0,0,1.44,1.484l4.82,2.593-8.3,1.634a1.714,1.714,0,0,0-1.27,1.5l-0.68,7.9a1.693,1.693,0,0,0,1.53,1.841q0.075,0.006.15,0.006c0.86,0,.71-0.667.79-1.551l0.58-6.7,9.45-1.926,4.46,11.248-4.96,1.684a1.7,1.7,0,0,0-.92,2.216,1.673,1.673,0,0,0,2.19.93l5.12-3,7.8,1.685,3.28,9.59h-38.55Zm37.91-30.87-2.12-8.452a1.682,1.682,0,0,0-2.37-1.11l-8.05,3.949a1.694,1.694,0,0,0-.85,2.09l2.27,6.551a1.674,1.674,0,0,0,2,1.084l7.91-2.047A1.7,1.7,0,0,0,1180.39,768.731Zm-8.46,1.312-2.15-4.53,5.73-3.256,2.98,5.668Zm13.56,9.7-4.37-4.27a1.666,1.666,0,0,0-2.61.353l-2.79,4.732a1.707,1.707,0,0,0,.47,2.249l5.26,3.809a1.668,1.668,0,0,0,2.51-.688l1.89-4.27A1.706,1.706,0,0,0,1185.49,779.741Zm-3.76,4.657-3.21-3.447,1.79-2.422,3.76,2.826Z" transform="translate(-1140 -758.969)"/>
</svg>
