<svg xmlns="http://www.w3.org/2000/svg" xmlns:xlink="http://www.w3.org/1999/xlink" preserveAspectRatio="xMidYMid" width="49" height="43" viewBox="0 0 49 43">
  <defs>
    <style>
      .cls-1 {
        fill: #fff;
        fill-rule: evenodd;
      }
    </style>
  </defs>
  <path d="M44.775,21.091 C44.785,21.130 44.785,21.169 44.785,21.219 L44.785,41.820 C44.785,42.469 44.244,43.000 43.583,43.000 L21.416,43.000 C21.406,43.000 21.396,43.000 21.386,43.000 L12.075,43.000 C12.065,43.000 12.055,43.000 12.045,43.000 L5.407,43.000 C4.746,43.000 4.205,42.469 4.205,41.820 L4.205,21.071 C1.732,20.000 -0.000,17.582 -0.000,14.761 C-0.000,14.554 0.060,14.358 0.160,14.181 L7.439,1.600 C7.649,1.226 8.050,1.000 8.480,1.000 L40.510,1.000 C40.940,1.000 41.341,1.236 41.551,1.600 L48.840,14.181 C48.950,14.358 49.000,14.554 49.000,14.761 C49.000,17.592 47.258,20.019 44.775,21.091 ZM13.276,40.641 L20.185,40.641 L20.195,40.641 L20.195,27.912 C20.195,26.978 19.424,26.231 18.483,26.231 L14.988,26.231 C14.037,26.231 13.276,26.988 13.276,27.912 L13.276,40.641 ZM6.608,40.651 L10.863,40.651 L10.863,27.912 C10.863,25.681 12.716,23.872 14.978,23.872 L18.473,23.872 C20.745,23.872 22.588,25.691 22.588,27.912 L22.588,40.641 L42.382,40.641 L42.382,21.651 C42.242,21.651 42.112,21.661 41.971,21.661 C39.548,21.661 37.406,20.452 36.144,18.614 C34.883,20.452 32.750,21.661 30.327,21.661 C27.914,21.661 25.772,20.452 24.510,18.614 C23.238,20.452 21.106,21.661 18.683,21.661 C16.260,21.661 14.117,20.452 12.856,18.614 C11.594,20.452 9.452,21.661 7.029,21.661 C6.888,21.661 6.748,21.661 6.608,21.651 L6.608,40.651 ZM34.873,15.557 L25.782,15.557 C26.162,17.680 28.054,19.292 30.327,19.292 C32.600,19.292 34.492,17.680 34.873,15.557 ZM23.228,15.557 L14.127,15.557 C14.518,17.680 16.410,19.292 18.683,19.292 C20.956,19.292 22.848,17.680 23.228,15.557 ZM7.029,19.292 C9.301,19.292 11.204,17.680 11.584,15.557 L2.483,15.557 C2.864,17.680 4.756,19.302 7.029,19.292 ZM39.809,3.369 L9.181,3.369 L3.494,13.208 L45.506,13.208 L39.809,3.369 ZM37.426,15.567 C37.806,17.690 39.699,19.302 41.971,19.302 C44.244,19.302 46.137,17.680 46.527,15.567 L37.426,15.567 ZM28.154,23.872 L34.813,23.872 C36.635,23.872 38.117,25.327 38.117,27.116 L38.117,32.129 C38.117,33.918 36.635,35.373 34.813,35.373 L28.154,35.373 C26.332,35.373 24.850,33.918 24.850,32.129 L24.850,27.116 C24.850,25.327 26.332,23.872 28.154,23.872 ZM27.253,32.129 C27.253,32.611 27.654,33.014 28.154,33.014 L34.813,33.014 C35.303,33.014 35.714,32.620 35.714,32.129 L35.714,27.116 C35.714,26.634 35.313,26.231 34.813,26.231 L28.154,26.231 C27.664,26.231 27.253,26.625 27.253,27.116 L27.253,32.129 Z" class="cls-1"/>
</svg>
