<svg xmlns="http://www.w3.org/2000/svg" xmlns:xlink="http://www.w3.org/1999/xlink" preserveAspectRatio="xMidYMid" width="49" height="43" viewBox="0 0 49 43">
  <defs>
    <style>
      .cls-1 {
        fill: #fff;
        fill-rule: evenodd;
      }
    </style>
  </defs>
  <path d="M41.435,1.000 L8.565,1.000 C6.048,1.000 4.000,3.048 4.000,5.565 L4.000,38.435 C4.000,40.952 6.048,43.000 8.565,43.000 L41.435,43.000 C43.952,43.000 46.000,40.952 46.000,38.435 L46.000,5.565 C46.000,3.048 43.952,1.000 41.435,1.000 ZM6.739,5.565 C6.739,4.558 7.558,3.739 8.565,3.739 L23.630,3.739 L23.630,9.812 L12.812,20.630 L6.739,20.630 L6.739,5.565 ZM23.630,40.261 L8.565,40.261 C7.558,40.261 6.739,39.442 6.739,38.435 L6.739,23.370 L12.812,23.370 L23.630,34.188 L23.630,40.261 L23.630,40.261 ZM15.316,22.000 L25.000,12.316 L34.684,22.000 L25.000,31.684 L15.316,22.000 ZM43.261,38.435 C43.261,39.442 42.442,40.261 41.435,40.261 L26.370,40.261 L26.370,34.188 L37.188,23.370 L43.261,23.370 L43.261,38.435 ZM43.261,20.630 L37.188,20.630 L26.370,9.812 L26.370,3.739 L41.435,3.739 C42.442,3.739 43.261,4.558 43.261,5.565 L43.261,20.630 Z" class="cls-1"/>
</svg>
