<svg xmlns="http://www.w3.org/2000/svg" width="23" height="24" viewBox="0 0 23 24">
  <metadata><?xpacket begin="﻿" id="W5M0MpCehiHzreSzNTczkc9d"?>
<x:xmpmeta xmlns:x="adobe:ns:meta/" x:xmptk="Adobe XMP Core 5.6-c138 79.159824, 2016/09/14-01:09:01        ">
   <rdf:RDF xmlns:rdf="http://www.w3.org/1999/02/22-rdf-syntax-ns#">
      <rdf:Description rdf:about=""/>
   </rdf:RDF>
</x:xmpmeta>
                                                                                                    
                                                                                                    
                                                                                                    
                                                                                                    
                                                                                                    
                                                                                                    
                                                                                                    
                                                                                                    
                                                                                                    
                                                                                                    
                                                                                                    
                                                                                                    
                                                                                                    
                                                                                                    
                                                                                                    
                                                                                                    
                                                                                                    
                                                                                                    
                                                                                                    
                                                                                                    
                           
<?xpacket end="w"?></metadata>
<defs>
    <style>
      .cls-1 {
        fill: #a93133;
        fill-rule: evenodd;
      }
    </style>
  </defs>
  <path class="cls-1" d="M366.21,1591.91l-1.147-1.19a0.987,0.987,0,0,0-1.455,0l-0.156.16a9.028,9.028,0,0,0-5.125-1.62h-0.019a9,9,0,0,0-3.3.63l2.012-2.1a1.8,1.8,0,0,0,.822.2,1.849,1.849,0,0,0,1.351-.59,2.029,2.029,0,0,0,.562-1.41,1.983,1.983,0,0,0-.562-1.4,1.842,1.842,0,0,0-2.7,0,2.005,2.005,0,0,0-.562,1.4,2.106,2.106,0,0,0,.184.86l-3.623,3.77-0.123-.13a1.009,1.009,0,0,0-1.455,0l-1.162,1.21a1.088,1.088,0,0,0-.3.76,1.125,1.125,0,0,0,.3.76l0.123,0.12-3.623,3.78a1.8,1.8,0,0,0-.822-0.19,1.839,1.839,0,0,0-1.351.58,2.044,2.044,0,0,0,0,2.81,1.842,1.842,0,0,0,2.7,0,2.046,2.046,0,0,0,.373-2.26l2.013-2.09a10.069,10.069,0,0,0,.949,8.79l-0.194.2a1.111,1.111,0,0,0,0,1.52l1.153,1.21a1.009,1.009,0,0,0,1.455,0l1.152-1.21a1.109,1.109,0,0,0,0-1.52l-1.152-1.2a1.009,1.009,0,0,0-1.455,0l-0.033.04a8.7,8.7,0,0,1,.222-9.15,0.946,0.946,0,0,0,.373.08,1.019,1.019,0,0,0,.728-0.32l1.152-1.2a1.112,1.112,0,0,0,.232-1.15,7.8,7.8,0,0,1,8.781-.23l-0.071.08a1.111,1.111,0,0,0,0,1.52l1.153,1.2a1.009,1.009,0,0,0,1.455,0l1.152-1.2A1.1,1.1,0,0,0,366.21,1591.91ZM352.6,1605.73l-0.807.84-0.808-.84,0.808-.84Zm4.781-20.2a0.624,0.624,0,0,1,.9,0,0.67,0.67,0,0,1,.185.47,0.707,0.707,0,0,1-.185.47,0.624,0.624,0,0,1-.9,0h0a0.706,0.706,0,0,1-.184-0.47A0.687,0.687,0,0,1,357.382,1585.53Zm-11.507,13.86a0.626,0.626,0,0,1-.9,0,0.67,0.67,0,0,1,0-.93,0.6,0.6,0,0,1,.9,0A0.67,0.67,0,0,1,345.875,1599.39Zm5.753-6.09-0.807-.84,0.807-.84,0.4,0.41h0l0.4,0.42Zm12.7,0.21-0.807-.84,0.807-.84,0.808,0.84Z" transform="translate(-343.531 -1584)"/>
</svg>
