<svg xmlns="http://www.w3.org/2000/svg" xmlns:xlink="http://www.w3.org/1999/xlink" preserveAspectRatio="xMidYMid" width="49" height="43" viewBox="0 0 49 43">
  <defs>
    <style>
      .cls-1 {
        fill: #fff;
        fill-rule: evenodd;
      }
    </style>
  </defs>
  <path d="M48.650,22.657 L42.525,26.913 C42.350,26.999 42.175,27.083 42.000,27.083 C41.825,27.083 41.650,26.999 41.475,26.913 L35.350,22.657 C35.175,22.487 35.000,22.232 35.000,21.976 C35.000,21.721 35.175,21.466 35.350,21.296 L41.475,17.040 C41.737,16.870 42.175,16.870 42.525,17.040 L48.650,21.296 C48.913,21.466 49.000,21.721 49.000,21.976 C49.000,22.232 48.825,22.487 48.650,22.657 ZM42.000,18.742 L37.362,21.976 L42.000,25.211 L46.637,21.976 L42.000,18.742 ZM33.775,20.955 C33.600,21.040 33.425,21.125 33.250,21.125 C33.075,21.125 32.900,21.040 32.725,20.955 L26.600,16.699 C26.425,16.529 26.250,16.273 26.250,16.018 C26.250,15.763 26.425,15.508 26.600,15.337 L32.725,11.082 C32.987,10.911 33.425,10.911 33.775,11.082 L39.900,15.337 C40.162,15.507 40.250,15.763 40.250,16.018 C40.250,16.273 40.075,16.529 39.900,16.699 L33.775,20.955 ZM33.250,12.784 L28.613,16.018 L33.250,19.253 L37.888,16.018 L33.250,12.784 ZM25.025,14.997 C24.850,15.082 24.675,15.167 24.500,15.167 C24.325,15.167 24.150,15.082 23.975,14.997 L17.850,10.741 C17.675,10.571 17.500,10.315 17.500,10.060 C17.500,9.805 17.675,9.550 17.850,9.379 L23.975,5.123 C24.237,4.953 24.675,4.953 25.025,5.123 L31.150,9.379 C31.413,9.549 31.500,9.805 31.500,10.060 C31.500,10.315 31.325,10.571 31.150,10.741 L25.025,14.997 ZM24.500,6.826 L19.863,10.060 L24.500,13.294 L29.137,10.060 L24.500,6.826 ZM22.750,16.018 C22.750,16.274 22.575,16.529 22.400,16.699 L16.275,20.955 C16.100,21.040 15.925,21.125 15.750,21.125 C15.575,21.125 15.400,21.040 15.225,20.955 L9.100,16.699 C8.925,16.529 8.750,16.274 8.750,16.018 C8.750,15.763 8.925,15.508 9.100,15.337 L15.225,11.082 C15.488,10.911 15.925,10.911 16.275,11.082 L22.400,15.337 C22.662,15.508 22.750,15.763 22.750,16.018 ZM15.750,12.784 L11.112,16.018 L15.750,19.253 L20.387,16.018 L15.750,12.784 ZM14.000,21.976 C14.000,22.232 13.825,22.487 13.650,22.657 L7.525,26.913 C7.350,26.999 7.175,27.083 7.000,27.083 C6.825,27.083 6.650,26.999 6.475,26.913 L0.350,22.657 C0.175,22.487 -0.000,22.232 -0.000,21.976 C-0.000,21.721 0.175,21.466 0.350,21.296 L6.475,17.040 C6.737,16.870 7.175,16.870 7.525,17.040 L13.650,21.296 C13.913,21.466 14.000,21.721 14.000,21.976 ZM7.000,18.742 L2.363,21.976 L7.000,25.211 L11.638,21.976 L7.000,18.742 ZM15.225,22.998 C15.487,22.828 15.925,22.828 16.275,22.998 L22.400,27.254 C22.662,27.424 22.750,27.679 22.750,27.935 C22.750,28.190 22.575,28.445 22.400,28.616 L16.275,32.871 C16.100,32.957 15.925,33.042 15.750,33.042 C15.575,33.042 15.400,32.957 15.225,32.871 L9.100,28.616 C8.925,28.445 8.750,28.190 8.750,27.935 C8.750,27.679 8.925,27.424 9.100,27.254 L15.225,22.998 ZM15.750,31.169 L20.387,27.935 L15.750,24.700 L11.112,27.935 L15.750,31.169 ZM23.975,28.956 C24.237,28.786 24.675,28.786 25.025,28.956 L31.150,33.212 C31.413,33.382 31.500,33.638 31.500,33.893 C31.500,34.148 31.325,34.404 31.150,34.574 L25.025,38.830 C24.850,38.915 24.675,39.000 24.500,39.000 C24.325,39.000 24.150,38.915 23.975,38.830 L17.850,34.574 C17.675,34.404 17.500,34.148 17.500,33.893 C17.500,33.638 17.675,33.382 17.850,33.212 L23.975,28.956 ZM24.500,37.127 L29.137,33.893 L24.500,30.659 L19.863,33.893 L24.500,37.127 ZM24.500,27.083 C24.325,27.083 24.150,26.999 23.975,26.913 L17.850,22.657 C17.675,22.487 17.500,22.232 17.500,21.976 C17.500,21.721 17.675,21.466 17.850,21.296 L23.975,17.040 C24.237,16.870 24.675,16.870 25.025,17.040 L31.150,21.296 C31.413,21.466 31.500,21.721 31.500,21.976 C31.500,22.232 31.325,22.487 31.150,22.657 L25.025,26.913 C24.850,26.999 24.675,27.083 24.500,27.083 ZM24.500,18.742 L19.863,21.976 L24.500,25.211 L29.137,21.976 L24.500,18.742 ZM26.250,27.935 C26.250,27.679 26.425,27.424 26.600,27.254 L32.725,22.998 C32.987,22.828 33.425,22.828 33.775,22.998 L39.900,27.254 C40.162,27.424 40.250,27.679 40.250,27.935 C40.250,28.190 40.075,28.445 39.900,28.616 L33.775,32.871 C33.600,32.957 33.425,33.042 33.250,33.042 C33.075,33.042 32.900,32.957 32.725,32.871 L26.600,28.616 C26.425,28.445 26.250,28.190 26.250,27.935 ZM33.250,31.169 L37.888,27.935 L33.250,24.700 L28.613,27.935 L33.250,31.169 Z" class="cls-1"/>
</svg>
