<svg xmlns="http://www.w3.org/2000/svg" width="22" height="24" viewBox="0 0 22 24">
  <metadata><?xpacket begin="﻿" id="W5M0MpCehiHzreSzNTczkc9d"?>
<x:xmpmeta xmlns:x="adobe:ns:meta/" x:xmptk="Adobe XMP Core 5.6-c138 79.159824, 2016/09/14-01:09:01        ">
   <rdf:RDF xmlns:rdf="http://www.w3.org/1999/02/22-rdf-syntax-ns#">
      <rdf:Description rdf:about=""/>
   </rdf:RDF>
</x:xmpmeta>
                                                                                                    
                                                                                                    
                                                                                                    
                                                                                                    
                                                                                                    
                                                                                                    
                                                                                                    
                                                                                                    
                                                                                                    
                                                                                                    
                                                                                                    
                                                                                                    
                                                                                                    
                                                                                                    
                                                                                                    
                                                                                                    
                                                                                                    
                                                                                                    
                                                                                                    
                                                                                                    
                           
<?xpacket end="w"?></metadata>
<defs>
    <style>
      .cls-1 {
        fill: #a93133;
        fill-rule: evenodd;
      }
    </style>
  </defs>
  <path id="Forma_1" data-name="Forma 1" class="cls-1" d="M355.594,1740.04a1.246,1.246,0,1,1-1.209,1.24A1.228,1.228,0,0,1,355.594,1740.04Zm-3.457-.64a1.216,1.216,0,1,1-1.178,1.21A1.194,1.194,0,0,1,352.137,1739.4Zm2.455-1.82a0.89,0.89,0,1,1-.864.89A0.878,0.878,0,0,1,354.592,1737.58Zm10.049,9.06s-2.883-5.53-7.583-13.49v-4.61h0.29a0.773,0.773,0,0,0,.761-0.78,0.781,0.781,0,0,0-.761-0.79h-6.88a0.781,0.781,0,0,0-.763.79,0.772,0.772,0,0,0,.763.78h0.29v4.61c-4.7,7.96-7.587,13.51-7.587,13.51-0.733,2.24.074,4.3,2.416,4.3h16.638C364.568,1750.96,365.374,1748.89,364.641,1746.64Zm-12.534-12.66,0.183-.31h3.233l0.184,0.31c1.1,1.87,4.521,7.97,5.283,9.4H346.807C347.3,1742.52,350.907,1736.02,352.107,1733.98Z" transform="translate(-342.906 -1726.97)"/>
</svg>
