<svg xmlns="http://www.w3.org/2000/svg" width="24" height="24" viewBox="0 0 24 24">
  <metadata><?xpacket begin="﻿" id="W5M0MpCehiHzreSzNTczkc9d"?>
<x:xmpmeta xmlns:x="adobe:ns:meta/" x:xmptk="Adobe XMP Core 5.6-c138 79.159824, 2016/09/14-01:09:01        ">
   <rdf:RDF xmlns:rdf="http://www.w3.org/1999/02/22-rdf-syntax-ns#">
      <rdf:Description rdf:about=""/>
   </rdf:RDF>
</x:xmpmeta>
                                                                                                    
                                                                                                    
                                                                                                    
                                                                                                    
                                                                                                    
                                                                                                    
                                                                                                    
                                                                                                    
                                                                                                    
                                                                                                    
                                                                                                    
                                                                                                    
                                                                                                    
                                                                                                    
                                                                                                    
                                                                                                    
                                                                                                    
                                                                                                    
                                                                                                    
                                                                                                    
                           
<?xpacket end="w"?></metadata>
<defs>
    <style>
      .cls-1 {
        fill: #a93133;
        fill-rule: evenodd;
      }
    </style>
  </defs>
  <path id="Forma_1" data-name="Forma 1" class="cls-1" d="M366.138,1881.8l-12.133-12.14a0.89,0.89,0,0,0-.7-0.25l-9.1,1.03a0.865,0.865,0,0,0-.764.77l-1.034,9.1a0.858,0.858,0,0,0,.248.7l12.133,12.15a0.9,0.9,0,0,0,.62.25,0.938,0.938,0,0,0,.62-0.25l10.128-10.14a0.827,0.827,0,0,0,.248-0.62A1,1,0,0,0,366.138,1881.8Zm-21.951-1.72,0.909-7.98,7.979-.91,8.247,8.25-8.888,8.9Zm11.223,11.24-1.736-1.74,8.888-8.9,1.736,1.74Zm-3.038-16.59a3.273,3.273,0,0,0-4.671,0,3.3,3.3,0,1,0,5.642,2.31A3.256,3.256,0,0,0,352.372,1874.73Zm-1.22,3.43a1.622,1.622,0,0,1-2.211,0,1.582,1.582,0,0,1,0-2.21,1.55,1.55,0,0,1,2.645,1.09A1.49,1.49,0,0,1,351.152,1878.16Z" transform="translate(-342.406 -1869.41)"/>
</svg>
