<svg xmlns="http://www.w3.org/2000/svg" width="23" height="24" viewBox="0 0 23 24">
  <metadata><?xpacket begin="﻿" id="W5M0MpCehiHzreSzNTczkc9d"?>
<x:xmpmeta xmlns:x="adobe:ns:meta/" x:xmptk="Adobe XMP Core 5.6-c138 79.159824, 2016/09/14-01:09:01        ">
   <rdf:RDF xmlns:rdf="http://www.w3.org/1999/02/22-rdf-syntax-ns#">
      <rdf:Description rdf:about=""/>
   </rdf:RDF>
</x:xmpmeta>
                                                                                                    
                                                                                                    
                                                                                                    
                                                                                                    
                                                                                                    
                                                                                                    
                                                                                                    
                                                                                                    
                                                                                                    
                                                                                                    
                                                                                                    
                                                                                                    
                                                                                                    
                                                                                                    
                                                                                                    
                                                                                                    
                                                                                                    
                                                                                                    
                                                                                                    
                                                                                                    
                           
<?xpacket end="w"?></metadata>
<defs>
    <style>
      .cls-1 {
        fill: #a93133;
        fill-rule: evenodd;
      }
    </style>
  </defs>
  <path id="Forma_1" data-name="Forma 1" class="cls-1" d="M359.927,1719.32a0.87,0.87,0,0,0-1.279,0l-0.786.82-1.152-1.2,3.53-3.68a4.537,4.537,0,0,0,1.826.39h0a4.514,4.514,0,0,0,3.273-1.42,4.976,4.976,0,0,0,1.161-4.77,0.289,0.289,0,0,0-.2-0.2,0.25,0.25,0,0,0-.266.08l-2.911,3.04a4.851,4.851,0,0,1-1.429-1.17,5.309,5.309,0,0,1-1.13-1.49l2.911-3.04a0.309,0.309,0,0,0,.073-0.28,0.293,0.293,0,0,0-.192-0.21,4.363,4.363,0,0,0-1.293-.19,4.476,4.476,0,0,0-3.273,1.42,4.985,4.985,0,0,0-.972,5.31l-3.531,3.68-3.614-3.77c0-.01-0.006-0.01-0.009-0.02l-1.652-2.95a0.3,0.3,0,0,0-.114-0.13l-2.787-2.02a0.376,0.376,0,0,0-.5.05l-1.241,1.29a0.424,0.424,0,0,0-.045.52l1.934,2.91a0.486,0.486,0,0,0,.123.11l2.832,1.73a0.02,0.02,0,0,1,.02.01l3.613,3.77-2.719,2.84a4.384,4.384,0,0,0-1.826-.4,4.514,4.514,0,0,0-3.273,1.42,4.976,4.976,0,0,0-1.161,4.77,0.289,0.289,0,0,0,.2.2,0.268,0.268,0,0,0,.266-0.08l2.911-3.04a4.851,4.851,0,0,1,1.429,1.17,5.309,5.309,0,0,1,1.13,1.49l-2.911,3.04a0.309,0.309,0,0,0-.073.28,0.293,0.293,0,0,0,.192.21,4.363,4.363,0,0,0,1.293.19,4.478,4.478,0,0,0,3.273-1.42,4.889,4.889,0,0,0,1.349-3.41,5.009,5.009,0,0,0-.375-1.9l2.719-2.84,1.151,1.21-0.785.82a0.93,0.93,0,0,0-.265.66,0.954,0.954,0,0,0,.265.67l5.548,5.79a0.891,0.891,0,0,0,1.278,0l3.006-3.14a0.967,0.967,0,0,0,0-1.33Zm1.963,8.2a0.486,0.486,0,0,1-.716,0l-3.559-3.71a0.55,0.55,0,0,1,0-.75,0.486,0.486,0,0,1,.716,0l3.559,3.71A0.548,0.548,0,0,1,361.89,1727.52Zm1.611-1.68a0.486,0.486,0,0,1-.716,0l-3.559-3.71a0.548,0.548,0,0,1,0-.75,0.486,0.486,0,0,1,.716,0l3.559,3.71A0.55,0.55,0,0,1,363.5,1725.84Z" transform="translate(-343.688 -1706)"/>
</svg>
