<svg xmlns="http://www.w3.org/2000/svg" xmlns:xlink="http://www.w3.org/1999/xlink" preserveAspectRatio="xMidYMid" width="34" height="40" viewBox="0 0 34 40">
  <defs>
    <style>
      .cls-1 {
        fill: #9c9d9e;
        fill-rule: evenodd;
      }
    </style>
  </defs>
  <path d="M29.827,24.306 L34.000,33.276 L30.897,34.363 L30.897,39.150 C30.897,39.657 30.479,40.000 30.061,40.000 L0.836,40.000 C0.338,40.000 0.000,39.665 0.000,39.150 L0.000,0.850 C0.000,0.343 0.330,0.000 0.836,0.000 L30.069,0.000 C30.567,0.000 30.905,0.335 30.905,0.850 L30.905,10.335 C32.424,12.034 33.333,14.322 33.333,16.846 C33.333,19.771 32.006,22.484 29.827,24.306 ZM31.733,32.255 L28.428,25.286 C28.219,25.408 27.150,25.882 26.804,25.980 L28.469,33.448 L31.733,32.255 ZM29.224,1.699 L1.672,1.699 L1.672,38.301 L29.224,38.301 L29.224,34.935 L27.214,35.637 L25.108,26.299 C24.722,26.340 24.328,26.364 23.942,26.364 C23.436,26.364 22.937,26.323 22.455,26.250 L20.341,35.646 L13.555,33.260 L14.705,30.792 L7.027,30.792 L7.027,29.093 L15.493,29.093 L17.808,24.118 C16.763,23.219 15.919,22.108 15.340,20.833 L7.027,20.833 L7.027,19.134 L14.753,19.134 C14.576,18.399 14.480,17.631 14.480,16.838 C14.480,14.600 15.243,12.524 16.514,10.882 L7.027,10.882 L7.027,9.183 L18.170,9.183 L18.170,9.224 C19.762,7.974 21.764,7.230 23.950,7.230 C25.920,7.230 27.729,7.827 29.224,8.856 L29.224,1.699 ZM20.783,25.842 C20.236,25.653 19.713,25.408 19.215,25.123 L15.822,32.255 L19.086,33.440 L20.783,25.842 ZM23.950,8.930 C19.681,8.930 16.160,12.508 16.160,16.846 C16.160,21.185 19.681,24.763 23.950,24.763 C25.124,24.763 26.210,24.510 27.214,24.085 C29.980,22.810 31.733,20.000 31.741,16.846 C31.652,12.419 28.219,8.930 23.950,8.930 ZM27.793,22.296 L23.942,20.253 L20.003,22.214 L20.759,17.786 L17.575,14.641 L21.932,13.962 L23.862,9.959 L25.783,13.962 L30.141,14.641 L27.046,17.876 L27.793,22.296 ZM24.778,15.580 L23.942,13.881 L23.106,15.580 L21.265,15.833 L22.616,17.189 L22.278,19.150 L23.950,18.211 L25.623,19.060 L25.277,17.198 L26.619,15.833 L24.778,15.580 Z" class="cls-1"/>
</svg>
