<svg xmlns="http://www.w3.org/2000/svg" width="24" height="23" viewBox="0 0 24 23">
  <metadata><?xpacket begin="﻿" id="W5M0MpCehiHzreSzNTczkc9d"?>
<x:xmpmeta xmlns:x="adobe:ns:meta/" x:xmptk="Adobe XMP Core 5.6-c138 79.159824, 2016/09/14-01:09:01        ">
   <rdf:RDF xmlns:rdf="http://www.w3.org/1999/02/22-rdf-syntax-ns#">
      <rdf:Description rdf:about=""/>
   </rdf:RDF>
</x:xmpmeta>
                                                                                                    
                                                                                                    
                                                                                                    
                                                                                                    
                                                                                                    
                                                                                                    
                                                                                                    
                                                                                                    
                                                                                                    
                                                                                                    
                                                                                                    
                                                                                                    
                                                                                                    
                                                                                                    
                                                                                                    
                                                                                                    
                                                                                                    
                                                                                                    
                                                                                                    
                                                                                                    
                           
<?xpacket end="w"?></metadata>
<defs>
    <style>
      .cls-1 {
        fill: #a93133;
        fill-rule: evenodd;
      }
    </style>
  </defs>
  <path class="cls-1" d="M347.918,1591.19h-3.134a0.784,0.784,0,0,0-.784.78v14.09a0.783,0.783,0,0,0,.784.78h3.134a0.782,0.782,0,0,0,.783-0.78v-14.09A0.783,0.783,0,0,0,347.918,1591.19Zm18.126,0c-0.126-.02-6.035,0-6.035,0l0.826-2.25c0.569-1.55.2-3.93-1.38-4.77a2.773,2.773,0,0,0-1.812-.27,1.351,1.351,0,0,0-.8.6,3.308,3.308,0,0,0-.251,1.11,4.806,4.806,0,0,1-1.329,2.54c-1.216,1.18-5,4.6-5,4.6v12.53h13.059A13.519,13.519,0,0,0,366.044,1591.19Z" transform="translate(-344 -1583.84)"/>
</svg>
