<svg xmlns="http://www.w3.org/2000/svg" xmlns:xlink="http://www.w3.org/1999/xlink" preserveAspectRatio="xMidYMid" width="25" height="38" viewBox="0 0 25 38">
  <defs>
    <style>
      .cls-1 {
        fill: #a93133;
        fill-rule: evenodd;
      }
    </style>
  </defs>
  <path d="M12.428,15.883 C12.669,14.813 12.957,13.843 13.293,12.966 C14.203,13.803 15.226,14.250 16.354,14.250 C21.143,14.250 25.000,7.435 25.000,1.792 C25.000,0.804 24.238,-0.000 23.302,-0.000 C17.956,-0.000 11.500,4.071 11.500,9.127 C11.500,10.031 11.750,10.870 12.209,11.645 C11.836,12.507 11.505,13.455 11.223,14.500 C10.961,14.051 10.687,13.619 10.401,13.205 C10.722,12.642 10.900,12.033 10.900,11.376 C10.900,7.706 6.257,4.750 2.414,4.750 C1.634,4.750 1.000,5.420 1.000,6.242 C1.000,10.300 3.800,15.200 7.278,15.200 C8.046,15.200 8.748,14.925 9.380,14.409 C9.694,14.884 9.996,15.382 10.284,15.914 C5.066,16.553 1.000,21.240 1.000,26.916 C1.000,33.028 5.710,38.000 11.500,38.000 C17.290,38.000 22.000,33.028 22.000,26.917 C22.000,21.136 17.784,16.381 12.428,15.883 ZM12.969,22.412 C14.589,22.412 15.492,22.788 15.621,22.961 C15.461,23.080 14.746,23.068 14.317,23.060 L13.811,23.054 C13.313,23.054 13.181,22.987 12.998,22.896 C12.741,22.768 12.486,22.658 12.046,22.621 C12.327,22.498 12.613,22.412 12.969,22.412 ZM11.500,34.833 C9.629,34.833 7.937,34.080 6.621,32.880 L6.621,31.524 C6.621,31.224 6.734,31.039 6.950,30.711 C7.179,30.363 7.464,29.929 7.464,29.299 C7.464,28.140 6.441,28.020 6.056,27.974 C5.866,27.952 5.628,27.924 5.559,27.850 C5.477,27.765 5.370,27.557 5.265,27.356 C5.034,26.914 4.705,26.294 4.100,25.869 C4.568,22.188 7.419,19.324 10.970,19.056 C10.990,19.208 11.042,19.353 11.136,19.469 C11.085,19.501 11.022,19.539 10.944,19.580 C10.160,20.000 9.252,20.875 9.112,21.807 C9.039,22.288 9.173,22.736 9.489,23.070 C9.495,23.076 9.502,23.083 9.509,23.090 C9.201,23.248 8.905,23.456 8.646,23.730 C7.850,24.570 7.934,25.574 7.984,26.173 C7.994,26.294 8.005,26.409 8.005,26.514 C8.005,27.488 8.852,28.195 10.019,28.195 C10.901,28.195 11.879,28.338 12.227,28.509 C12.261,28.965 12.396,29.293 12.500,29.542 C12.595,29.773 12.640,29.892 12.593,30.220 C12.412,30.468 12.219,30.784 12.219,31.407 C12.219,32.450 13.081,33.513 13.254,33.716 C13.398,33.885 13.602,33.977 13.811,33.977 C13.874,33.977 13.936,33.970 13.997,33.953 C14.271,33.878 16.669,33.180 16.669,31.407 C16.669,31.091 16.719,31.045 16.907,30.873 C17.133,30.666 17.512,30.319 17.512,29.635 C17.534,29.372 18.045,28.562 18.582,27.934 C18.722,27.771 18.791,27.553 18.773,27.333 C18.755,27.114 18.651,26.912 18.485,26.777 C18.334,26.654 18.051,26.393 17.767,26.052 C17.801,26.053 17.833,26.051 17.868,26.051 C18.184,26.032 18.531,25.845 18.872,25.581 C18.943,26.017 19.000,26.459 19.000,26.916 C19.000,31.282 15.635,34.833 11.500,34.833 Z" class="cls-1"/>
</svg>
