<?xml version="1.0" encoding="utf-8"?>
<!-- Generator: Adobe Illustrator 19.1.0, SVG Export Plug-In . SVG Version: 6.00 Build 0)  -->
<svg version="1.1" id="Layer_1" xmlns="http://www.w3.org/2000/svg" xmlns:xlink="http://www.w3.org/1999/xlink" x="0px" y="0px"
	 viewBox="-390 391.6 110.5 110.4" style="enable-background:new -390 391.6 110.5 110.4;" xml:space="preserve">
<style type="text/css">
	.st0{fill:#FFBFBF;}
</style>
<title>icon-logo-prime</title>
<g id="Layer_2">
	<g id="Layer_1-2">
		<path class="st0" d="M-385.1,424.1h12.3c3.2-5.3,7.4-9.9,12.4-13.4l1.8-1.3v74.8l-1.8-1.3c-15.9-11.3-22.6-31.6-16.4-50.1h-11.4
			c-1.2,4.6-1.8,9.2-1.8,13.9c0,25.5,17.5,47.7,42.3,53.7v-29.8h50.4l-1.3,1.8c-8.3,11.7-21.8,18.7-36.2,18.7
			c-1.4,0-2.9-0.1-4.3-0.2v11c1.4,0.1,2.9,0.2,4.3,0.2c30.5,0,55.2-24.7,55.2-55.2c0-3.9-0.4-7.8-1.2-11.6
			c-0.9-4.3-2.3-8.4-4.2-12.3h-18v10.9h10.6l0.2,0.8c2.2,7.9,2.2,16.3,0,24.3l-0.2,0.8h-18.6v-50.4l1.8,1.3c1.5,1.1,3,2.2,4.3,3.5
			h14.5c-18-24.6-52.5-29.9-77.1-11.9C-375.1,407.9-381.2,415.4-385.1,424.1 M-347.7,421.8v-17.4l0.8-0.3c7.9-2.2,16.3-2.2,24.3,0
			l0.8,0.3v18.5h-25.9V421.8z M-339.5,459.4l-8.3-8.3v-8.6l8.7-8.7h8.5l8.7,8.6v8.8l-8.5,8.5h-8.8L-339.5,459.4z"/>
	</g>
</g>
</svg>
