<svg xmlns="http://www.w3.org/2000/svg" xmlns:xlink="http://www.w3.org/1999/xlink" preserveAspectRatio="xMidYMid" width="16" height="16" viewBox="0 0 16 16">
  <defs>
    <style>
      .cls-1 {
        fill: #ffbfbf;
        fill-rule: evenodd;
      }
    </style>
  </defs>
  <path d="M15.805,15.615 C15.622,15.868 15.342,16.000 15.060,16.000 C14.861,16.000 14.660,15.935 14.489,15.798 L12.145,13.918 C12.180,13.883 12.216,13.847 12.250,13.812 C12.663,13.380 13.023,12.904 13.326,12.390 L15.633,14.240 C16.044,14.570 16.121,15.187 15.805,15.615 ZM12.950,12.091 C12.661,12.588 12.315,13.050 11.918,13.466 C11.869,13.517 11.818,13.568 11.767,13.617 C11.161,14.215 10.466,14.690 9.698,15.030 C8.839,15.411 7.924,15.603 6.982,15.603 C6.041,15.603 5.127,15.411 4.265,15.030 C3.434,14.660 2.687,14.134 2.045,13.464 C1.402,12.792 0.899,12.013 0.548,11.143 C0.184,10.243 0.000,9.285 0.000,8.300 C0.000,7.317 0.184,6.360 0.548,5.458 C0.597,5.337 0.652,5.215 0.706,5.097 C1.046,4.370 1.494,3.712 2.045,3.137 C2.394,2.771 2.775,2.449 3.184,2.172 C3.526,1.940 3.886,1.740 4.264,1.573 C5.123,1.192 6.038,1.000 6.980,1.000 C7.921,1.000 8.835,1.192 9.697,1.573 C10.081,1.744 10.448,1.948 10.795,2.186 C11.197,2.461 11.572,2.779 11.916,3.139 C12.468,3.716 12.916,4.374 13.254,5.099 C13.310,5.217 13.363,5.339 13.412,5.460 C13.776,6.360 13.960,7.318 13.960,8.302 C13.960,9.286 13.776,10.243 13.412,11.145 C13.280,11.473 13.125,11.787 12.950,12.091 ZM10.894,5.099 C10.862,5.056 10.831,5.016 10.799,4.975 C10.703,4.855 10.601,4.739 10.494,4.627 C9.558,3.645 8.311,3.105 6.984,3.105 C5.657,3.105 4.410,3.645 3.471,4.627 C3.370,4.732 3.276,4.840 3.186,4.952 C3.147,4.999 3.109,5.048 3.071,5.097 C2.388,6.008 2.016,7.124 2.018,8.302 C2.018,9.691 2.535,10.995 3.473,11.977 C4.410,12.959 5.658,13.500 6.984,13.500 C8.309,13.500 9.556,12.959 10.494,11.977 C11.433,10.995 11.949,9.691 11.949,8.302 C11.949,7.126 11.580,6.010 10.894,5.099 ZM4.436,8.265 C4.436,7.965 4.669,7.719 4.958,7.719 L5.568,7.719 C5.672,7.719 5.769,7.774 5.827,7.862 L6.659,9.118 L6.864,8.666 L6.531,7.935 C6.484,7.835 6.556,7.719 6.661,7.719 L7.326,7.719 C7.431,7.719 7.500,7.835 7.455,7.935 L7.123,8.666 L7.331,9.125 L8.187,7.859 C8.245,7.770 8.341,7.719 8.444,7.719 L9.025,7.719 C9.312,7.719 9.546,7.963 9.546,8.265 L9.548,8.265 L9.548,11.897 L4.436,11.897 L4.436,8.265 ZM6.991,7.371 C6.064,7.371 5.309,6.582 5.309,5.612 C5.309,4.641 6.064,3.852 6.991,3.852 C7.919,3.852 8.673,4.641 8.673,5.612 C8.673,6.582 7.919,7.371 6.991,7.371 Z" class="cls-1"/>
</svg>
