<svg xmlns="http://www.w3.org/2000/svg" xmlns:xlink="http://www.w3.org/1999/xlink" preserveAspectRatio="xMidYMid" width="49" height="43" viewBox="0 0 49 43">
  <defs>
    <style>
      .cls-1 {
        fill: #fff;
        fill-rule: evenodd;
      }
    </style>
  </defs>
  <path d="M38.755,41.076 C38.485,41.359 38.165,41.500 37.796,41.500 L10.517,41.500 C10.147,41.500 9.828,41.359 9.558,41.076 C9.288,40.793 9.153,40.458 9.153,40.071 L9.153,2.928 C9.153,2.542 9.288,2.207 9.558,1.924 C9.828,1.641 10.147,1.500 10.517,1.500 L37.796,1.500 C38.165,1.500 38.485,1.641 38.755,1.924 C39.025,2.207 39.160,2.542 39.160,2.928 L39.160,40.071 C39.160,40.458 39.024,40.793 38.755,41.076 ZM36.432,4.357 L11.881,4.357 L11.881,38.643 L20.064,38.643 L20.064,33.643 C20.064,33.449 20.132,33.282 20.267,33.141 C20.402,32.999 20.562,32.929 20.746,32.929 L27.566,32.929 C27.751,32.929 27.910,32.999 28.046,33.141 C28.181,33.282 28.248,33.449 28.248,33.643 L28.248,38.643 L36.432,38.643 L36.432,4.357 ZM31.658,7.214 L33.022,7.214 C33.207,7.214 33.367,7.285 33.502,7.426 C33.637,7.568 33.704,7.735 33.704,7.929 L33.704,9.357 C33.704,9.550 33.637,9.718 33.502,9.859 C33.367,10.001 33.207,10.071 33.022,10.071 L31.658,10.071 C31.473,10.071 31.313,10.001 31.179,9.859 C31.044,9.718 30.977,9.550 30.977,9.357 L30.977,7.929 C30.977,7.735 31.044,7.568 31.179,7.426 C31.313,7.285 31.473,7.214 31.658,7.214 ZM31.658,12.929 L33.022,12.929 C33.207,12.929 33.367,12.999 33.502,13.141 C33.637,13.282 33.704,13.450 33.704,13.643 L33.704,15.071 C33.704,15.265 33.637,15.432 33.502,15.574 C33.367,15.715 33.207,15.786 33.022,15.786 L31.658,15.786 C31.473,15.786 31.313,15.715 31.179,15.574 C31.044,15.432 30.977,15.265 30.977,15.071 L30.977,13.643 C30.977,13.450 31.044,13.282 31.179,13.141 C31.313,12.999 31.473,12.929 31.658,12.929 ZM31.658,18.643 L33.022,18.643 C33.207,18.643 33.367,18.714 33.502,18.855 C33.637,18.997 33.704,19.164 33.704,19.357 L33.704,20.786 C33.704,20.979 33.637,21.147 33.502,21.288 C33.367,21.429 33.207,21.500 33.022,21.500 L31.658,21.500 C31.473,21.500 31.313,21.429 31.179,21.288 C31.044,21.147 30.977,20.979 30.977,20.786 L30.977,19.357 C30.977,19.164 31.044,18.996 31.179,18.855 C31.313,18.714 31.473,18.643 31.658,18.643 ZM31.658,24.357 L33.022,24.357 C33.207,24.357 33.367,24.428 33.502,24.569 C33.637,24.711 33.704,24.878 33.704,25.071 L33.704,26.500 C33.704,26.694 33.637,26.861 33.502,27.002 C33.367,27.144 33.207,27.214 33.022,27.214 L31.658,27.214 C31.473,27.214 31.313,27.144 31.179,27.002 C31.044,26.861 30.977,26.694 30.977,26.500 L30.977,25.071 C30.977,24.878 31.044,24.710 31.179,24.569 C31.313,24.428 31.473,24.357 31.658,24.357 ZM31.658,30.072 L33.022,30.072 C33.207,30.072 33.367,30.142 33.502,30.284 C33.637,30.425 33.704,30.592 33.704,30.786 L33.704,32.214 C33.704,32.408 33.637,32.575 33.502,32.717 C33.367,32.858 33.207,32.929 33.022,32.929 L31.658,32.929 C31.473,32.929 31.313,32.858 31.179,32.717 C31.044,32.575 30.977,32.408 30.977,32.214 L30.977,30.786 C30.977,30.592 31.044,30.425 31.179,30.284 C31.313,30.142 31.473,30.072 31.658,30.072 ZM27.566,27.214 L26.202,27.214 C26.018,27.214 25.858,27.144 25.723,27.002 C25.588,26.861 25.520,26.694 25.520,26.500 L25.520,25.071 C25.520,24.878 25.588,24.711 25.723,24.569 C25.858,24.428 26.018,24.357 26.202,24.357 L27.566,24.357 C27.751,24.357 27.911,24.428 28.046,24.569 C28.180,24.711 28.248,24.878 28.248,25.071 L28.248,26.500 C28.248,26.694 28.181,26.861 28.046,27.002 C27.911,27.144 27.751,27.214 27.566,27.214 ZM27.566,21.500 L26.202,21.500 C26.018,21.500 25.858,21.429 25.723,21.288 C25.588,21.147 25.520,20.979 25.520,20.786 L25.520,19.357 C25.520,19.164 25.588,18.996 25.723,18.855 C25.858,18.714 26.018,18.643 26.202,18.643 L27.566,18.643 C27.751,18.643 27.911,18.714 28.046,18.855 C28.180,18.997 28.248,19.164 28.248,19.357 L28.248,20.786 C28.248,20.979 28.181,21.147 28.046,21.288 C27.911,21.429 27.751,21.500 27.566,21.500 ZM27.566,15.786 L26.202,15.786 C26.018,15.786 25.858,15.715 25.723,15.574 C25.588,15.432 25.520,15.265 25.520,15.071 L25.520,13.643 C25.520,13.450 25.588,13.282 25.723,13.141 C25.858,12.999 26.018,12.929 26.202,12.929 L27.566,12.929 C27.751,12.929 27.911,12.999 28.046,13.141 C28.180,13.282 28.248,13.450 28.248,13.643 L28.248,15.071 C28.248,15.265 28.181,15.432 28.046,15.574 C27.911,15.715 27.751,15.786 27.566,15.786 ZM27.566,10.071 L26.202,10.071 C26.018,10.071 25.858,10.001 25.723,9.859 C25.588,9.718 25.520,9.550 25.520,9.357 L25.520,7.929 C25.520,7.735 25.588,7.568 25.723,7.426 C25.858,7.285 26.018,7.214 26.202,7.214 L27.566,7.214 C27.751,7.214 27.911,7.285 28.046,7.426 C28.180,7.568 28.248,7.735 28.248,7.929 L28.248,9.357 C28.248,9.550 28.181,9.718 28.046,9.859 C27.911,10.001 27.751,10.071 27.566,10.071 ZM22.111,27.214 L20.747,27.214 C20.562,27.214 20.402,27.144 20.267,27.002 C20.132,26.861 20.065,26.694 20.065,26.500 L20.065,25.071 C20.065,24.878 20.132,24.711 20.267,24.569 C20.402,24.428 20.562,24.357 20.747,24.357 L22.111,24.357 C22.295,24.357 22.455,24.428 22.590,24.569 C22.725,24.711 22.792,24.878 22.792,25.071 L22.792,26.500 C22.792,26.694 22.725,26.861 22.590,27.002 C22.455,27.144 22.295,27.214 22.111,27.214 ZM22.111,21.500 L20.747,21.500 C20.562,21.500 20.402,21.429 20.267,21.288 C20.132,21.147 20.065,20.979 20.065,20.786 L20.065,19.357 C20.065,19.164 20.132,18.996 20.267,18.855 C20.402,18.714 20.562,18.643 20.747,18.643 L22.111,18.643 C22.295,18.643 22.455,18.714 22.590,18.855 C22.725,18.997 22.792,19.164 22.792,19.357 L22.792,20.786 C22.792,20.979 22.725,21.147 22.590,21.288 C22.455,21.429 22.295,21.500 22.111,21.500 ZM22.111,15.786 L20.747,15.786 C20.562,15.786 20.402,15.715 20.267,15.574 C20.132,15.432 20.065,15.265 20.065,15.071 L20.065,13.643 C20.065,13.450 20.132,13.282 20.267,13.141 C20.402,12.999 20.562,12.929 20.747,12.929 L22.111,12.929 C22.295,12.929 22.455,12.999 22.590,13.141 C22.725,13.282 22.792,13.450 22.792,13.643 L22.792,15.071 C22.792,15.265 22.725,15.432 22.590,15.574 C22.455,15.715 22.295,15.786 22.111,15.786 ZM22.111,10.071 L20.747,10.071 C20.562,10.071 20.402,10.001 20.267,9.859 C20.132,9.718 20.065,9.550 20.065,9.357 L20.065,7.929 C20.065,7.735 20.132,7.568 20.267,7.426 C20.402,7.285 20.562,7.214 20.747,7.214 L22.111,7.214 C22.295,7.214 22.455,7.285 22.590,7.426 C22.725,7.568 22.792,7.735 22.792,7.929 L22.792,9.357 C22.792,9.550 22.725,9.718 22.590,9.859 C22.455,10.001 22.295,10.071 22.111,10.071 ZM16.654,32.929 L15.291,32.929 C15.106,32.929 14.946,32.858 14.811,32.717 C14.676,32.575 14.609,32.408 14.609,32.214 L14.609,30.786 C14.609,30.592 14.676,30.425 14.811,30.284 C14.946,30.142 15.106,30.072 15.291,30.072 L16.654,30.072 C16.839,30.072 16.999,30.142 17.134,30.284 C17.269,30.425 17.336,30.592 17.336,30.786 L17.336,32.214 C17.336,32.408 17.269,32.575 17.134,32.717 C16.999,32.858 16.839,32.929 16.654,32.929 ZM16.654,27.214 L15.291,27.214 C15.106,27.214 14.946,27.144 14.811,27.002 C14.676,26.861 14.609,26.694 14.609,26.500 L14.609,25.071 C14.609,24.878 14.676,24.710 14.811,24.569 C14.946,24.428 15.106,24.357 15.291,24.357 L16.654,24.357 C16.839,24.357 16.999,24.428 17.134,24.569 C17.269,24.710 17.336,24.878 17.336,25.071 L17.336,26.500 C17.336,26.694 17.269,26.861 17.134,27.002 C16.999,27.144 16.839,27.214 16.654,27.214 ZM16.654,21.500 L15.291,21.500 C15.106,21.500 14.946,21.429 14.811,21.288 C14.676,21.147 14.609,20.979 14.609,20.786 L14.609,19.357 C14.609,19.164 14.676,18.996 14.811,18.855 C14.946,18.714 15.106,18.643 15.291,18.643 L16.654,18.643 C16.839,18.643 16.999,18.714 17.134,18.855 C17.269,18.996 17.336,19.164 17.336,19.357 L17.336,20.786 C17.336,20.979 17.269,21.147 17.134,21.288 C16.999,21.429 16.839,21.500 16.654,21.500 ZM16.654,15.786 L15.291,15.786 C15.106,15.786 14.946,15.715 14.811,15.574 C14.676,15.432 14.609,15.265 14.609,15.071 L14.609,13.643 C14.609,13.450 14.676,13.282 14.811,13.141 C14.946,12.999 15.106,12.929 15.291,12.929 L16.654,12.929 C16.839,12.929 16.999,12.999 17.134,13.141 C17.269,13.282 17.336,13.450 17.336,13.643 L17.336,15.071 C17.336,15.265 17.269,15.432 17.134,15.574 C16.999,15.715 16.839,15.786 16.654,15.786 ZM16.654,10.071 L15.291,10.071 C15.106,10.071 14.946,10.001 14.811,9.859 C14.676,9.718 14.609,9.550 14.609,9.357 L14.609,7.929 C14.609,7.735 14.676,7.568 14.811,7.426 C14.946,7.285 15.106,7.214 15.291,7.214 L16.654,7.214 C16.839,7.214 16.999,7.285 17.134,7.426 C17.269,7.568 17.336,7.735 17.336,7.929 L17.336,9.357 C17.336,9.550 17.269,9.718 17.134,9.859 C16.999,10.001 16.839,10.071 16.654,10.071 Z" class="cls-1"/>
</svg>
