<svg xmlns="http://www.w3.org/2000/svg" xmlns:xlink="http://www.w3.org/1999/xlink" preserveAspectRatio="xMidYMid" width="50" height="50" viewBox="0 0 50 50">
  <defs>
    <style>
      .cls-1 {
        fill: #d4d4d4;
        opacity: 0.2;
      }

      .cls-2 {
        fill: #a93133;
        fill-rule: evenodd;
      }
    </style>
  </defs>
  <g>
    <circle cx="25" cy="25" r="25" class="cls-1"/>
    <path d="M24.361,27.532 L23.708,26.135 C24.331,25.694 24.866,25.146 25.284,24.521 L26.773,25.064 C27.057,25.168 27.375,25.030 27.483,24.756 L28.030,23.366 C28.082,23.234 28.077,23.088 28.017,22.960 C27.957,22.832 27.847,22.732 27.710,22.682 L26.222,22.139 C26.339,21.403 26.315,20.652 26.151,19.925 L27.603,19.295 C27.736,19.238 27.840,19.131 27.892,19.000 C27.943,18.868 27.939,18.722 27.879,18.594 L27.245,17.239 C27.120,16.971 26.793,16.853 26.516,16.973 L25.065,17.602 C24.607,17.002 24.038,16.487 23.389,16.084 L23.953,14.651 C24.060,14.377 23.917,14.071 23.633,13.967 L22.189,13.441 C22.052,13.391 21.901,13.395 21.767,13.453 C21.634,13.511 21.530,13.617 21.478,13.749 L20.914,15.182 C20.150,15.068 19.368,15.091 18.614,15.249 L17.961,13.852 C17.901,13.724 17.790,13.624 17.654,13.574 C17.517,13.524 17.365,13.529 17.232,13.586 L15.824,14.197 C15.547,14.317 15.423,14.631 15.548,14.898 L16.202,16.295 C15.579,16.736 15.043,17.284 14.625,17.909 L13.137,17.366 C13.000,17.316 12.848,17.321 12.715,17.379 C12.582,17.436 12.478,17.542 12.426,17.674 L11.879,19.064 C11.771,19.338 11.915,19.644 12.199,19.748 L13.688,20.291 C13.570,21.026 13.594,21.778 13.758,22.505 L12.307,23.134 C12.173,23.193 12.069,23.299 12.018,23.430 C11.966,23.562 11.970,23.708 12.031,23.836 L12.665,25.191 C12.725,25.320 12.835,25.420 12.972,25.470 C13.109,25.519 13.260,25.515 13.393,25.457 L14.845,24.828 C15.302,25.428 15.871,25.943 16.521,26.346 L15.957,27.779 C15.849,28.052 15.992,28.359 16.277,28.463 L17.721,28.989 C17.783,29.012 17.850,29.023 17.916,29.023 C17.993,29.023 18.070,29.008 18.142,28.977 C18.275,28.919 18.379,28.813 18.431,28.681 L18.995,27.248 C19.759,27.362 20.541,27.338 21.295,27.181 L21.949,28.578 C22.009,28.706 22.119,28.806 22.256,28.856 C22.392,28.906 22.544,28.901 22.677,28.843 L24.085,28.233 C24.363,28.113 24.486,27.798 24.361,27.532 ZM23.448,22.489 C22.901,23.879 21.497,24.813 19.954,24.813 C19.503,24.813 19.057,24.734 18.631,24.578 C17.698,24.238 16.958,23.568 16.548,22.692 C16.139,21.816 16.108,20.839 16.461,19.941 C17.008,18.551 18.412,17.617 19.955,17.617 C20.407,17.617 20.852,17.696 21.278,17.852 C22.211,18.192 22.951,18.862 23.361,19.738 C23.771,20.614 23.802,21.591 23.448,22.489 ZM35.699,29.733 C35.600,29.629 35.463,29.567 35.317,29.561 L34.279,29.518 C34.183,29.047 34.011,28.591 33.768,28.171 L34.534,27.495 C34.758,27.297 34.773,26.962 34.567,26.746 L33.807,25.948 C33.708,25.845 33.571,25.783 33.425,25.777 C33.279,25.772 33.136,25.821 33.029,25.916 L32.263,26.593 C31.849,26.324 31.393,26.120 30.913,25.988 L30.957,24.989 C30.971,24.696 30.734,24.448 30.430,24.436 L29.308,24.390 C29.005,24.379 28.747,24.604 28.734,24.897 L28.689,25.896 C28.199,25.988 27.727,26.154 27.290,26.387 L26.587,25.650 C26.489,25.547 26.351,25.485 26.205,25.479 C26.059,25.474 25.917,25.523 25.809,25.618 L24.981,26.350 C24.757,26.548 24.742,26.884 24.948,27.099 L25.650,27.836 C25.371,28.235 25.159,28.674 25.022,29.136 L23.984,29.093 C23.681,29.082 23.423,29.308 23.410,29.601 L23.362,30.681 C23.355,30.822 23.407,30.959 23.506,31.063 C23.605,31.167 23.743,31.228 23.889,31.234 L24.926,31.277 C25.022,31.749 25.195,32.204 25.437,32.624 L24.672,33.300 C24.564,33.395 24.500,33.528 24.494,33.668 C24.487,33.809 24.539,33.946 24.638,34.050 L25.398,34.847 C25.497,34.950 25.635,35.012 25.781,35.018 C25.926,35.024 26.069,34.974 26.177,34.879 L26.942,34.203 C27.356,34.471 27.812,34.676 28.292,34.808 L28.248,35.807 C28.235,36.099 28.471,36.347 28.775,36.359 L29.897,36.406 C29.905,36.406 29.913,36.406 29.921,36.406 C30.059,36.406 30.192,36.357 30.294,36.267 C30.401,36.172 30.465,36.039 30.472,35.898 L30.516,34.899 C31.006,34.807 31.479,34.641 31.915,34.408 L32.618,35.145 C32.717,35.249 32.854,35.310 33.000,35.316 C33.147,35.322 33.289,35.272 33.396,35.177 L34.224,34.445 C34.449,34.247 34.463,33.912 34.258,33.696 L33.555,32.959 C33.834,32.560 34.046,32.121 34.184,31.659 L35.221,31.702 C35.525,31.713 35.782,31.488 35.795,31.195 L35.844,30.114 C35.850,29.973 35.798,29.836 35.699,29.733 ZM29.493,32.869 C28.077,32.811 26.975,31.654 27.036,30.292 C27.095,28.964 28.221,27.924 29.600,27.924 C29.638,27.924 29.675,27.925 29.713,27.927 C31.128,27.985 32.230,29.141 32.169,30.504 C32.109,31.867 30.919,32.926 29.493,32.869 Z" class="cls-2"/>
  </g>
</svg>
