<svg xmlns="http://www.w3.org/2000/svg" xmlns:xlink="http://www.w3.org/1999/xlink" preserveAspectRatio="xMidYMid" width="49" height="43" viewBox="0 0 49 43">
  <defs>
    <style>
      .cls-1 {
        fill: #fff;
        fill-rule: evenodd;
      }
    </style>
  </defs>
  <path d="M48.783,18.734 C48.534,19.070 48.146,19.247 47.754,19.247 C47.492,19.247 47.229,19.169 47.002,19.005 L24.498,2.805 L1.995,19.005 C1.427,19.414 0.629,19.293 0.214,18.734 C-0.202,18.176 -0.079,17.392 0.489,16.983 L23.746,0.240 C24.194,-0.083 24.803,-0.083 25.252,0.240 L48.508,16.983 C49.076,17.392 49.199,18.176 48.783,18.734 ZM6.652,19.289 C7.355,19.289 7.926,19.850 7.926,20.542 L7.926,40.493 L18.124,40.493 L18.124,29.603 C18.124,26.147 20.984,23.335 24.499,23.335 C28.013,23.335 30.873,26.147 30.873,29.603 L30.873,40.493 L41.071,40.493 L41.071,20.542 C41.071,19.850 41.642,19.289 42.345,19.289 C43.050,19.289 43.620,19.850 43.620,20.542 L43.620,41.747 C43.620,42.439 43.050,43.000 42.346,43.000 L29.598,43.000 C28.927,43.000 28.379,42.490 28.328,41.843 C28.325,41.814 28.323,41.783 28.323,41.747 L28.323,29.603 C28.323,27.529 26.608,25.842 24.499,25.842 C22.390,25.842 20.674,27.529 20.674,29.603 L20.674,41.747 C20.674,41.783 20.672,41.815 20.669,41.844 C20.618,42.491 20.069,43.000 19.399,43.000 L6.652,43.000 C5.948,43.000 5.377,42.439 5.377,41.747 L5.377,20.542 C5.377,19.850 5.948,19.289 6.652,19.289 Z" class="cls-1"/>
</svg>
