<svg xmlns="http://www.w3.org/2000/svg" xmlns:xlink="http://www.w3.org/1999/xlink" preserveAspectRatio="xMidYMid" width="49" height="43" viewBox="0 0 49 43">
  <defs>
    <style>
      .cls-1 {
        fill: #fff;
        fill-rule: evenodd;
      }
    </style>
  </defs>
  <path d="M38.302,10.349 C39.227,9.977 40.116,9.564 40.946,9.103 C41.165,9.986 41.323,10.927 41.414,11.916 C40.560,12.452 39.634,12.934 38.656,13.367 C38.629,12.275 38.500,11.271 38.302,10.349 ZM36.458,5.913 C37.408,5.608 38.325,5.264 39.196,4.870 C39.767,5.793 40.262,6.851 40.645,8.045 C39.828,8.507 38.953,8.919 38.038,9.295 C37.632,7.906 37.073,6.767 36.458,5.913 ZM33.628,3.897 C33.124,3.924 32.406,4.459 31.732,5.596 C31.676,5.690 31.632,5.806 31.578,5.904 C30.521,6.054 29.444,6.165 28.334,6.201 C29.419,3.221 31.277,1.135 33.368,1.008 C35.202,0.896 37.086,1.997 38.584,3.975 C37.675,4.375 36.702,4.708 35.699,5.008 C35.000,4.314 34.253,3.897 33.628,3.897 ZM30.206,11.167 C29.271,11.256 28.323,11.315 27.351,11.315 C27.408,9.903 27.628,8.549 27.974,7.309 C29.018,7.287 30.041,7.215 31.042,7.095 C30.596,8.281 30.289,9.669 30.206,11.167 ZM17.965,12.889 C18.963,13.009 19.982,13.082 21.025,13.103 C21.372,14.343 21.592,15.696 21.648,17.109 C20.680,17.108 19.734,17.050 18.803,16.962 C18.718,15.463 18.410,14.074 17.965,12.889 ZM17.274,11.389 C16.602,10.252 15.881,9.718 15.378,9.690 C14.754,9.690 14.007,10.109 13.304,10.804 C12.300,10.504 11.325,10.170 10.412,9.770 C11.910,7.791 13.794,6.691 15.629,6.802 C17.719,6.929 19.577,9.015 20.663,11.995 C19.556,11.959 18.482,11.850 17.429,11.700 C17.375,11.600 17.330,11.483 17.274,11.389 ZM10.967,15.089 C10.049,14.714 9.171,14.300 8.353,13.836 C8.734,12.644 9.231,11.585 9.800,10.662 C10.674,11.057 11.594,11.401 12.545,11.708 C11.933,12.563 11.374,13.702 10.967,15.089 ZM10.349,19.163 C9.368,18.730 8.441,18.247 7.584,17.709 C7.675,16.720 7.833,15.779 8.052,14.896 C8.886,15.359 9.777,15.771 10.702,16.145 C10.505,17.067 10.378,18.073 10.349,19.163 ZM10.572,22.695 C10.624,23.036 10.690,23.347 10.749,23.678 C9.642,23.212 8.596,22.687 7.640,22.093 C7.521,20.997 7.481,19.943 7.514,18.931 C8.403,19.457 9.355,19.930 10.359,20.352 C10.387,21.105 10.445,21.880 10.572,22.695 ZM8.428,26.809 C8.220,25.723 8.003,24.623 7.816,23.460 C11.040,25.293 15.035,26.498 19.413,26.809 L8.428,26.809 ZM9.170,32.223 L12.033,32.444 C12.063,33.253 12.056,34.087 11.998,34.960 C11.869,36.890 12.259,38.554 13.041,39.408 C13.316,39.708 13.799,40.104 14.840,40.104 L14.847,40.104 C15.637,40.102 16.346,39.716 16.795,39.046 C17.408,38.132 17.450,36.854 16.918,35.444 C16.546,34.458 16.302,33.588 16.123,32.761 L19.088,32.988 C19.214,33.431 19.363,33.892 19.553,34.398 C21.374,39.221 18.463,42.995 14.843,43.000 C10.548,43.007 8.878,39.005 9.159,34.763 C9.218,33.881 9.209,33.042 9.170,32.223 ZM16.914,25.412 C17.135,24.853 17.372,24.280 17.643,23.664 C17.837,23.225 17.986,22.775 18.129,22.323 C19.076,22.430 20.039,22.509 21.023,22.529 C20.810,23.313 20.555,24.093 20.220,24.854 C20.081,25.168 19.962,25.450 19.841,25.739 C18.841,25.679 17.869,25.562 16.914,25.412 ZM18.808,18.056 C19.739,18.142 20.681,18.200 21.645,18.200 C21.624,19.269 21.511,20.356 21.289,21.443 C20.311,21.431 19.356,21.359 18.416,21.257 C18.665,20.186 18.794,19.111 18.808,18.056 ZM30.591,15.464 C29.648,15.565 28.690,15.638 27.708,15.650 C27.487,14.562 27.373,13.476 27.354,12.407 C28.320,12.407 29.264,12.349 30.200,12.263 C30.211,13.316 30.341,14.391 30.591,15.464 ZM31.362,17.871 C31.635,18.487 31.873,19.060 32.089,19.617 C31.136,19.769 30.159,19.886 29.155,19.944 C29.033,19.655 28.913,19.373 28.774,19.060 C28.439,18.298 28.184,17.518 27.973,16.735 C28.960,16.714 29.925,16.636 30.874,16.529 C31.020,16.981 31.168,17.431 31.362,17.871 ZM29.910,27.195 L32.883,26.967 C32.703,27.795 32.460,28.667 32.086,29.650 C31.554,31.059 31.597,32.339 32.211,33.253 C32.659,33.923 33.368,34.309 34.157,34.311 L34.165,34.311 C35.209,34.311 35.691,33.915 35.964,33.615 C36.746,32.761 37.136,31.097 37.008,29.167 C36.949,28.294 36.942,27.460 36.972,26.651 L39.828,26.430 C39.788,27.249 39.778,28.088 39.836,28.970 C40.118,33.212 38.446,37.214 34.151,37.207 C30.534,37.201 27.621,33.428 29.442,28.605 C29.634,28.100 29.782,27.638 29.910,27.195 ZM41.182,17.667 C40.996,18.829 40.777,19.930 40.570,21.017 L29.586,21.017 C33.963,20.706 37.960,19.499 41.182,17.667 ZM38.435,16.902 C38.560,16.085 38.618,15.309 38.648,14.556 C39.648,14.134 40.598,13.663 41.486,13.138 C41.518,14.151 41.478,15.205 41.359,16.300 C40.406,16.892 39.363,17.417 38.259,17.882 C38.317,17.551 38.382,17.241 38.435,16.902 Z" class="cls-1"/>
</svg>
