<svg xmlns="http://www.w3.org/2000/svg" xmlns:xlink="http://www.w3.org/1999/xlink" preserveAspectRatio="xMidYMid" width="49" height="43" viewBox="0 0 49 43">
  <defs>
    <style>
      .cls-1 {
        fill: #fff;
        fill-rule: evenodd;
      }
    </style>
  </defs>
  <path d="M32.334,43.000 L30.375,43.000 L17.646,43.000 L15.687,43.000 L1.000,43.000 L1.000,29.638 L1.000,27.728 L1.000,16.273 L1.000,14.364 L1.000,1.000 L17.646,1.000 L17.646,14.364 L32.334,14.364 L32.334,27.728 L48.000,27.728 L48.000,43.000 L32.334,43.000 ZM15.687,2.909 L2.959,2.909 L2.959,14.364 L15.687,14.364 L15.687,2.909 ZM15.687,16.273 L2.959,16.273 L2.959,27.728 L15.687,27.728 L15.687,16.273 ZM15.687,29.638 L2.959,29.638 L2.959,41.093 L15.687,41.093 L15.687,29.638 ZM30.375,16.273 L17.646,16.273 L17.646,27.728 L30.375,27.728 L30.375,16.273 ZM30.375,29.638 L17.646,29.638 L17.646,41.093 L30.375,41.093 L30.375,29.638 ZM46.041,29.638 L32.334,29.638 L32.334,41.093 L46.041,41.093 L46.041,29.638 ZM34.291,30.592 L44.084,30.592 C44.624,30.592 45.063,31.019 45.063,31.545 C45.063,32.074 44.624,32.502 44.084,32.502 L35.272,32.502 L35.272,39.183 C35.272,39.710 34.833,40.136 34.291,40.136 C33.751,40.136 33.312,39.710 33.312,39.183 L33.312,31.545 C33.312,31.019 33.751,30.592 34.291,30.592 ZM19.604,30.592 L28.416,30.592 C28.958,30.592 29.397,31.019 29.397,31.545 C29.397,32.074 28.958,32.502 28.416,32.502 L20.584,32.502 L20.584,39.183 C20.584,39.710 20.145,40.136 19.604,40.136 C19.063,40.136 18.625,39.710 18.625,39.183 L18.625,31.545 C18.625,31.019 19.063,30.592 19.604,30.592 ZM19.604,17.227 L28.416,17.227 C28.958,17.227 29.397,17.655 29.397,18.182 C29.397,18.709 28.958,19.137 28.416,19.137 L20.584,19.137 L20.584,25.818 C20.584,26.346 20.145,26.774 19.604,26.774 C19.063,26.774 18.625,26.346 18.625,25.818 L18.625,18.182 C18.625,17.655 19.063,17.227 19.604,17.227 ZM4.916,30.592 L13.729,30.592 C14.270,30.592 14.709,31.019 14.709,31.545 C14.709,32.074 14.270,32.502 13.729,32.502 L5.896,32.502 L5.896,39.183 C5.896,39.710 5.457,40.136 4.916,40.136 C4.376,40.136 3.938,39.710 3.938,39.183 L3.938,31.545 C3.938,31.019 4.376,30.592 4.916,30.592 ZM4.916,17.227 L13.729,17.227 C14.270,17.227 14.709,17.655 14.709,18.182 C14.709,18.709 14.270,19.137 13.729,19.137 L5.896,19.137 L5.896,25.818 C5.896,26.346 5.457,26.774 4.916,26.774 C4.376,26.774 3.937,26.346 3.937,25.818 L3.937,18.182 C3.937,17.655 4.376,17.227 4.916,17.227 ZM4.916,3.864 L13.729,3.864 C14.270,3.864 14.709,4.291 14.709,4.818 C14.709,5.345 14.270,5.772 13.729,5.772 L5.896,5.772 L5.896,12.455 C5.896,12.982 5.457,13.409 4.916,13.409 C4.376,13.409 3.937,12.982 3.937,12.455 L3.937,4.818 C3.937,4.291 4.376,3.864 4.916,3.864 Z" class="cls-1"/>
</svg>
