<svg xmlns="http://www.w3.org/2000/svg" xmlns:xlink="http://www.w3.org/1999/xlink" preserveAspectRatio="xMidYMid" width="92" height="92" viewBox="0 0 92 92">
  <defs>
    <style>
      .cls-1, .cls-2 {
        fill: #a93133;
      }

      .cls-1 {
        opacity: 0.1;
      }

      .cls-2 {
        fill-rule: evenodd;
      }
    </style>
  </defs>
  <g>
    <circle cx="46" cy="46" r="46" class="cls-1"/>
    <path d="M61.052,66.000 C55.746,66.000 51.397,61.926 51.118,56.817 C49.606,57.764 47.834,58.283 46.000,58.283 C44.167,58.283 42.394,57.764 40.882,56.817 C40.603,61.926 36.255,66.000 30.948,66.000 C25.463,66.000 21.000,61.647 21.000,56.296 C21.000,54.961 21.277,53.689 21.779,52.531 L26.040,38.693 C26.638,36.752 27.371,34.376 29.016,32.804 C29.016,32.801 29.016,32.798 29.016,32.795 C29.016,29.599 31.680,27.000 34.956,27.000 C38.232,27.000 40.896,29.599 40.896,32.795 C40.896,33.507 40.759,34.215 40.498,34.878 C40.733,35.121 40.964,35.363 41.191,35.603 C41.380,35.802 41.565,35.997 41.748,36.187 C42.955,35.272 44.455,34.761 46.000,34.761 C47.544,34.761 49.044,35.272 50.252,36.187 C50.435,35.997 50.620,35.802 50.809,35.603 C51.036,35.363 51.267,35.121 51.502,34.878 C51.241,34.215 51.104,33.507 51.104,32.795 C51.104,29.599 53.768,27.000 57.044,27.000 C60.320,27.000 62.984,29.599 62.984,32.795 C62.984,32.798 62.984,32.801 62.984,32.804 C64.629,34.376 65.361,36.752 65.959,38.693 L70.221,52.532 C70.722,53.690 71.000,54.961 71.000,56.296 C71.000,61.647 66.537,66.000 61.052,66.000 ZM30.948,63.968 C35.285,63.968 38.813,60.526 38.813,56.296 C38.813,52.065 35.285,48.625 30.948,48.625 C26.612,48.625 23.084,52.065 23.084,56.296 C23.084,60.526 26.612,63.968 30.948,63.968 ZM34.956,29.033 C33.328,29.033 31.934,30.022 31.369,31.416 C32.024,31.212 32.764,31.098 33.605,31.098 C35.674,31.098 37.338,32.033 38.784,33.250 C38.803,33.100 38.813,32.947 38.813,32.795 C38.813,30.720 37.083,29.033 34.956,29.033 ZM57.044,29.033 C54.917,29.033 53.187,30.721 53.187,32.795 C53.187,32.947 53.197,33.100 53.216,33.250 C54.662,32.033 56.326,31.098 58.395,31.098 C59.236,31.098 59.976,31.212 60.631,31.416 C60.066,30.022 58.672,29.033 57.044,29.033 ZM63.964,39.278 C62.855,35.678 61.807,33.131 58.395,33.131 C55.996,33.131 54.137,35.089 52.338,36.984 C52.034,37.305 51.722,37.632 51.408,37.950 L51.700,39.833 C51.786,40.388 51.395,40.906 50.826,40.990 C50.773,40.998 50.721,41.001 50.669,41.001 C50.162,41.001 49.718,40.641 49.640,40.137 L49.321,38.084 C48.427,37.261 47.234,36.794 46.000,36.794 C44.766,36.794 43.573,37.261 42.679,38.084 L41.990,42.521 C41.912,43.024 41.468,43.385 40.961,43.385 C40.910,43.385 40.857,43.381 40.804,43.374 C40.235,43.290 39.844,42.772 39.930,42.217 L40.592,37.951 C40.279,37.633 39.967,37.305 39.662,36.984 C37.864,35.089 36.004,33.131 33.605,33.131 C30.193,33.131 29.145,35.679 28.036,39.278 L25.242,48.351 C26.859,47.243 28.827,46.592 30.948,46.592 C35.610,46.592 39.532,49.736 40.606,53.964 C42.000,55.418 43.951,56.250 46.000,56.250 C48.049,56.250 50.000,55.418 51.395,53.964 C52.468,49.736 56.390,46.592 61.052,46.592 C63.173,46.592 65.141,47.243 66.758,48.351 L63.964,39.278 ZM61.052,48.625 C56.715,48.625 53.187,52.065 53.187,56.296 C53.187,60.526 56.715,63.968 61.052,63.968 C65.388,63.968 68.916,60.526 68.916,56.296 C68.916,52.065 65.388,48.625 61.052,48.625 ZM61.052,52.689 C59.511,52.689 58.117,53.636 57.583,55.045 C57.428,55.456 57.030,55.710 56.606,55.710 C56.486,55.710 56.364,55.690 56.245,55.647 C55.705,55.452 55.429,54.868 55.629,54.341 C56.463,52.137 58.643,50.656 61.052,50.656 C61.627,50.656 62.094,51.111 62.094,51.672 C62.094,52.233 61.627,52.689 61.052,52.689 ZM56.197,56.502 C56.751,56.355 57.325,56.674 57.476,57.215 C57.480,57.230 57.484,57.245 57.488,57.260 C57.619,57.806 57.272,58.353 56.712,58.482 C56.632,58.501 56.552,58.509 56.473,58.509 C56.003,58.509 55.578,58.198 55.461,57.734 C55.321,57.198 55.647,56.649 56.197,56.502 ZM46.000,53.562 C43.854,53.562 42.108,51.859 42.108,49.765 C42.108,47.672 43.854,45.969 46.000,45.969 C48.146,45.969 49.892,47.672 49.892,49.765 C49.892,51.859 48.146,53.562 46.000,53.562 ZM46.000,48.002 C45.003,48.002 44.192,48.793 44.192,49.765 C44.192,50.738 45.003,51.530 46.000,51.530 C46.997,51.530 47.808,50.738 47.808,49.765 C47.808,48.793 46.997,48.002 46.000,48.002 ZM30.948,50.656 C31.524,50.656 31.990,51.111 31.990,51.672 C31.990,52.233 31.523,52.689 30.948,52.689 C29.407,52.689 28.013,53.636 27.480,55.045 C27.324,55.456 26.926,55.710 26.502,55.710 C26.382,55.710 26.260,55.690 26.141,55.647 C25.602,55.452 25.326,54.868 25.525,54.341 C26.360,52.137 28.539,50.656 30.948,50.656 ZM26.093,56.502 C26.648,56.355 27.221,56.674 27.372,57.215 C27.377,57.230 27.380,57.245 27.384,57.260 C27.516,57.806 27.168,58.353 26.608,58.482 C26.528,58.501 26.448,58.509 26.369,58.509 C25.899,58.509 25.474,58.198 25.358,57.734 C25.217,57.198 25.543,56.649 26.093,56.502 Z" class="cls-2"/>
  </g>
</svg>
