<svg xmlns="http://www.w3.org/2000/svg" viewBox="0 0 110.46 110.43"><defs><style>.cls-1{fill:#fff;fill-rule:evenodd;}</style></defs><title>icon-logo-prime</title><g id="Layer_2" data-name="Layer 2"><g id="Layer_1-2" data-name="Layer 1"><path class="cls-1" d="M4.92,32.52H17.17A44.69,44.69,0,0,1,29.58,19.07l1.79-1.27V92.64l-1.79-1.27a44.18,44.18,0,0,1-16.4-50.1H1.78A56.36,56.36,0,0,0,0,55.22a55.16,55.16,0,0,0,42.27,53.67V79.07h50.4L91.4,80.85A44.46,44.46,0,0,1,55.22,99.53a42.55,42.55,0,0,1-4.28-.23v11c1.43.1,2.87.17,4.28.17a55.22,55.22,0,0,0,54-66.78A54.71,54.71,0,0,0,105,31.36H87V42.27H97.65l.23.81a44.66,44.66,0,0,1,0,24.28l-.23.81H79.09V17.81l1.79,1.27a43.21,43.21,0,0,1,4.32,3.51H99.75A55.18,55.18,0,0,0,4.92,32.52m37.35-2.28V12.82l.81-.25a44.72,44.72,0,0,1,24.29,0l.83.25V31.36H42.27Zm8.28,37.6-8.28-8.26V51L51,42.27h8.53l8.66,8.63v8.76l-8.51,8.51h-8.8Z"/></g></g></svg>