<svg xmlns="http://www.w3.org/2000/svg" xmlns:xlink="http://www.w3.org/1999/xlink" preserveAspectRatio="xMidYMid" width="49" height="43" viewBox="0 0 49 43">
  <defs>
    <style>
      .cls-1 {
        stroke: #fff;
        stroke-width: 2px;
        fill: none;
        fill-rule: evenodd;
      }
    </style>
  </defs>
  <path d="M43.684,20.284 C43.385,19.771 42.882,19.487 42.258,19.487 C41.101,19.492 39.708,19.962 38.623,20.714 C37.622,21.407 36.172,22.692 34.947,24.883 C34.718,25.294 34.340,25.572 33.937,25.639 C33.936,25.543 33.936,25.434 33.936,25.332 C33.936,25.112 33.937,24.850 33.928,24.562 L33.928,8.821 C33.928,7.253 32.682,5.977 31.150,5.977 C29.618,5.977 28.373,7.253 28.373,8.821 L28.373,19.843 C28.373,20.039 28.216,20.199 28.026,20.199 C27.834,20.199 27.678,20.039 27.678,19.843 L27.678,3.843 C27.678,2.275 26.432,0.999 24.901,0.999 C23.369,0.999 22.123,2.275 22.123,3.843 L22.123,19.843 C22.123,20.039 21.967,20.199 21.776,20.199 C21.585,20.199 21.428,20.039 21.428,19.843 L21.428,7.044 C21.428,5.671 20.338,4.555 18.998,4.555 C17.658,4.555 16.568,5.671 16.568,7.044 L16.568,21.265 C16.568,21.461 16.411,21.621 16.220,21.621 C16.029,21.621 15.873,21.461 15.873,21.265 L15.873,12.377 C15.873,11.004 14.783,9.888 13.436,9.888 C12.095,9.888 11.005,11.004 11.005,12.377 L11.007,31.716 C11.679,41.659 17.635,43.001 23.373,43.001 C28.127,43.001 32.397,40.586 34.502,36.726 C34.773,36.278 35.506,35.099 36.374,33.701 C38.547,30.207 40.366,27.272 40.635,26.750 C41.234,25.588 41.903,24.680 42.568,24.124 C43.170,23.621 43.538,22.978 43.837,22.414 C43.992,22.122 44.126,21.044 43.684,20.284 Z" class="cls-1"/>
</svg>
