<svg xmlns="http://www.w3.org/2000/svg" viewBox="0 0 125.86 190.19"><defs><style>.cls-1{fill:#a71e22;}.cls-1,.cls-2{fill-rule:evenodd;}.cls-2,.cls-3{fill:#ba9664;}</style></defs><title>logo-prime</title><g id="Layer_2" data-name="Layer 2"><g id="Layer_1-2" data-name="Layer 1"><path class="cls-1" d="M0,143.88V171H8.16V161h4.38c3.3,0,5.77-.81,7.31-2.39a8.18,8.18,0,0,0,2.37-6.35c0-2.72-.71-4.75-2.14-6.18s-3.63-2.16-6.58-2.16H0m125.57,5.77v-5.77h-21.8V171h22.09v-6.16h-14v-5.33h12.62v-5.58H111.89v-4.3ZM42.16,152.1a2.28,2.28,0,0,0-1.6-2.43c-1.64-.54-4.48-.35-5.79-.35v5.58c1.68,0,4.28.19,6-.64A2.2,2.2,0,0,0,42.16,152.1Zm-2.05-8.22a19.47,19.47,0,0,1,5.77.62,6.78,6.78,0,0,1,3.2,2.57,7.17,7.17,0,0,1,1.25,4.3,7.35,7.35,0,0,1-1,3.9,7.46,7.46,0,0,1-2.6,2.68A10.68,10.68,0,0,1,43.93,159c2.84,1.08,3.55,2.18,5,5L52.46,171H43.2l-3.74-7.39c-1.23-2.37-1.75-3.63-4.69-3.63v11H26.66V143.88ZM63.48,171V143.88H55.32V171Zm35.14,0V143.88H88l-4.11,16.46-4-16.46H69.19V171h6.68V150.38L80.94,171h6L92,150.38V171ZM8.16,155.38v-6.06c1.56,0,4.28-.21,5.42,1a3.15,3.15,0,0,1,.83,2.16,2.64,2.64,0,0,1-.91,2.14C12.17,155.65,9.84,155.38,8.16,155.38Z"/><path class="cls-2" d="M12.62,32.52H24.87A44.69,44.69,0,0,1,37.28,19.07l1.79-1.27V92.64l-1.79-1.27a44.18,44.18,0,0,1-16.4-50.1H9.49A56.36,56.36,0,0,0,7.7,55.22,55.16,55.16,0,0,0,50,108.89V79.07h50.4L99.1,80.85A44.46,44.46,0,0,1,62.92,99.53a42.55,42.55,0,0,1-4.28-.23v11c1.43.1,2.87.17,4.28.17a55.22,55.22,0,0,0,54-66.78,54.71,54.71,0,0,0-4.21-12.29h-18V42.27h10.61l.23.81a44.66,44.66,0,0,1,0,24.28l-.23.81H86.79V17.81l1.79,1.27a43.21,43.21,0,0,1,4.32,3.51h14.55a55.18,55.18,0,0,0-94.83,9.94M50,30.24V12.82l.81-.25a44.72,44.72,0,0,1,24.29,0l.83.25V31.36H50Zm8.28,37.6L50,59.58V51l8.74-8.74h8.53l8.66,8.63v8.76l-8.51,8.51h-8.8Z"/><path class="cls-2" d="M0,121.45v10.67H35.79V121.45H0"/><path class="cls-2" d="M45.82,121.45v10.67H81.63V121.45H45.82"/><path class="cls-2" d="M90.08,121.45v10.67h35.79V121.45H90.08"/><path class="cls-3" d="M29,180.61H26.66l.17-.85h5.65l-.17.85H30l-1.35,7.11h-1Z"/><path class="cls-3" d="M31.79,187.72l1.59-8.39h1L33.65,183h0a2.46,2.46,0,0,1,2-1.15,1.39,1.39,0,0,1,1.42,1.54,5.27,5.27,0,0,1-.09,1l-.64,3.34h-1l.64-3.3a4.64,4.64,0,0,0,.07-.79.83.83,0,0,0-.89-.95,2.47,2.47,0,0,0-1.95,2.17l-.53,2.86Z"/><path class="cls-3" d="M37.86,189.27a.61.61,0,0,1,.61-.6.61.61,0,0,1,0,1.22A.61.61,0,0,1,37.86,189.27Zm.24-1.55L39.2,182h1l-1.1,5.72Zm1.28-7.31a.65.65,0,0,1,.65-.66.57.57,0,0,1,.58.61.65.65,0,0,1-.66.66A.57.57,0,0,1,39.37,180.41Z"/><path class="cls-3" d="M40.8,187.72l.77-4.05c.13-.64.2-1.19.27-1.67h.87l-.14,1.12h0a2.5,2.5,0,0,1,2.11-1.25,1.41,1.41,0,0,1,1.45,1.59,5.5,5.5,0,0,1-.11.92l-.64,3.33h-1l.63-3.3a3.77,3.77,0,0,0,.08-.73c0-.58-.22-1-.9-1a2.52,2.52,0,0,0-1.95,2.26l-.52,2.78Z"/><path class="cls-3" d="M47.11,187.72l1.59-8.39h1L49,183h0a2.46,2.46,0,0,1,2-1.15,1.39,1.39,0,0,1,1.42,1.54,5.27,5.27,0,0,1-.09,1l-.64,3.34h-1l.64-3.3a4.64,4.64,0,0,0,.07-.79.83.83,0,0,0-.89-.95,2.47,2.47,0,0,0-1.95,2.17l-.53,2.86Z"/><path class="cls-3" d="M56.85,182l.5,3.26c.08.65.15,1.09.18,1.41h0a13,13,0,0,1,.6-1.34L59.91,182H61l-3.18,5.72h-1l-1-5.72Z"/><path class="cls-3" d="M67.72,180.73a2,2,0,0,1,.09.57,1.24,1.24,0,0,1-1.39,1.31l-.66,3.45c-.12.64-.2,1.19-.26,1.67h-.89l.15-1.07h0a2.54,2.54,0,0,1-2,1.2c-.73,0-1.5-.35-1.5-1.65a5.2,5.2,0,0,1,.11-1l.61-3.24h1l-.6,3.19a3.88,3.88,0,0,0-.11.84c0,.59.25,1,.92,1A2.36,2.36,0,0,0,65,184.93l.56-2.93h.8c.48,0,.71-.22.71-.64a1.45,1.45,0,0,0-.11-.51Z"/><path class="cls-3" d="M73.56,181a2.09,2.09,0,0,1,.09.66,1.1,1.1,0,0,1-1.23,1.2,2.59,2.59,0,0,1,.33,1.35,3.43,3.43,0,0,1-3.17,3.59,2.18,2.18,0,0,1-2.23-2.35,3.43,3.43,0,0,1,3.17-3.63,2.38,2.38,0,0,1,1,.2,2,2,0,0,0,.83.27.52.52,0,0,0,.56-.59,1.84,1.84,0,0,0-.11-.58Zm-5.19,4.42c0,.93.51,1.61,1.35,1.61,1.16,0,2-1.49,2-2.82a1.41,1.41,0,0,0-1.33-1.59C69.19,182.65,68.37,184.15,68.38,185.47Zm.34,3.8a.61.61,0,0,1,.61-.6.61.61,0,0,1,0,1.22A.61.61,0,0,1,68.72,189.27Z"/><path class="cls-3" d="M73.45,187.72l.77-4.05c.13-.64.2-1.19.27-1.67h.87l-.14,1.12h0a2.5,2.5,0,0,1,2.11-1.25,1.41,1.41,0,0,1,1.45,1.59,5.51,5.51,0,0,1-.11.92l-.64,3.33h-1l.63-3.3a3.77,3.77,0,0,0,.08-.73c0-.58-.22-1-.9-1a2.52,2.52,0,0,0-1.95,2.26l-.52,2.78Z"/><path class="cls-3" d="M79.82,189a3,3,0,0,0,1.51.38c1,0,1.71-.5,2.06-2l.19-.85h0a2.28,2.28,0,0,1-2,1.22,1.8,1.8,0,0,1-1.74-2,3.73,3.73,0,0,1,3.63-3.86,4.65,4.65,0,0,1,1.83.4L84.4,187a4.26,4.26,0,0,1-1.16,2.55,3,3,0,0,1-2,.64,3.39,3.39,0,0,1-1.71-.4Zm4.38-6.17a2.38,2.38,0,0,0-.94-.19c-1.43,0-2.41,1.49-2.42,2.91,0,.63.22,1.37,1.1,1.37s1.69-1.06,1.9-2.19Z"/><path class="cls-3" d="M88.12,187.72l1.59-8.39h1l-1.61,8.39Z"/><path class="cls-3" d="M94.6,187.72a14.8,14.8,0,0,1,.13-1.48h0a2.5,2.5,0,0,1-2.22,1.61A1.69,1.69,0,0,1,90.85,186a4,4,0,0,1,4-4.09,5.34,5.34,0,0,1,1.54.22l-.58,3a13,13,0,0,0-.25,2.65Zm.64-5a2.65,2.65,0,0,0-.69-.08,3.05,3.05,0,0,0-2.69,3.13c0,.64.22,1.26,1,1.26s1.78-1.06,2.07-2.59Zm-1-3.12.78,1.69h-.71l-1.18-1.69Z"/><path class="cls-3" d="M100.67,179.88a7.91,7.91,0,0,1,1.72-.18,2.86,2.86,0,0,1,1.95.61,1.86,1.86,0,0,1,.58,1.44,2.74,2.74,0,0,1-1,2.08,3.76,3.76,0,0,1-2.41.76,5.72,5.72,0,0,1-.82-.06l-.6,3.19h-1Zm.22,3.83a3.59,3.59,0,0,0,.79.08,2,2,0,0,0,2.24-2c0-.94-.67-1.32-1.58-1.32a3.61,3.61,0,0,0-.86.08Z"/><path class="cls-3" d="M105,187.72l.7-3.69c.14-.74.24-1.5.3-2h.86c0,.4-.09.8-.15,1.24h0a2.07,2.07,0,0,1,1.75-1.37l.27,0-.19,1-.26,0c-.85,0-1.61,1-1.85,2.36l-.47,2.52Z"/><path class="cls-3" d="M108.75,187.72l1.1-5.72h1l-1.1,5.72Zm1.28-7.31a.65.65,0,0,1,.65-.66.57.57,0,0,1,.58.61.65.65,0,0,1-.66.66A.57.57,0,0,1,110,180.41Z"/><path class="cls-3" d="M111.46,187.72l.77-4.05c.12-.64.2-1.19.26-1.67h.86l-.15,1.07h0a2.44,2.44,0,0,1,2-1.2,1.24,1.24,0,0,1,1.33,1.28,2.45,2.45,0,0,1,2.1-1.28,1.36,1.36,0,0,1,1.38,1.5,5.82,5.82,0,0,1-.09,1l-.64,3.38h-1l.61-3.3a3.78,3.78,0,0,0,.08-.74c0-.6-.22-1-.86-1s-1.55.83-1.78,2.1l-.55,2.93h-.95l.64-3.36a3.68,3.68,0,0,0,.07-.7c0-.48-.13-1-.85-1s-1.61.95-1.83,2.16l-.53,2.87Z"/><path class="cls-3" d="M125.13,187.39a3.94,3.94,0,0,1-1.89.45,2.06,2.06,0,0,1-2.17-2.29c0-1.72,1.28-3.67,3.12-3.67a1.49,1.49,0,0,1,1.68,1.46c0,1.5-1.69,1.9-3.8,1.87a2.38,2.38,0,0,0,.12,1.09,1.3,1.3,0,0,0,1.28.77,3.19,3.19,0,0,0,1.54-.4ZM124,182.64c-.93,0-1.63.91-1.87,1.81,1.54,0,2.74-.19,2.74-1.07C124.92,182.9,124.56,182.64,124,182.64Z"/></g></g></svg>